<svg width="20" height="19" viewBox="0 0 20 19" fill="none" xmlns="http://www.w3.org/2000/svg">
<path fill-rule="evenodd" clip-rule="evenodd" d="M11.9996 1.54167C10.8144 0.652778 9.18477 0.652778 7.99959 1.54167L2.27245 5.83702C1.35468 6.52535 0.855357 7.63725 0.950628 8.7805L1.4781 15.1102C1.62207 16.8378 3.06629 18.1667 4.79992 18.1667H15.1993C16.9329 18.1667 18.3771 16.8378 18.5211 15.1102L19.0485 8.7805C19.1438 7.63725 18.6445 6.52535 17.7267 5.83702L11.9996 1.54167ZM8.99959 2.875C9.59218 2.43056 10.407 2.43056 10.9996 2.875L16.7267 7.17035C17.1856 7.51452 17.4353 8.07047 17.3876 8.6421L16.8602 14.9717C16.7882 15.8356 16.0661 16.5 15.1993 16.5H12.5719L12.7404 14.4787C12.874 12.8752 11.6086 11.5 9.99959 11.5C8.39056 11.5 7.12519 12.8752 7.25881 14.4787L7.42725 16.5H4.79992C3.9331 16.5 3.21099 15.8356 3.13901 14.9717L2.61154 8.6421C2.5639 8.07047 2.81356 7.51452 3.27245 7.17035L8.99959 2.875ZM11.0795 14.3403L10.8995 16.5H9.0997L8.91972 14.3403C8.86707 13.7085 9.36563 13.1667 9.99959 13.1667C10.6335 13.1667 11.1321 13.7085 11.0795 14.3403Z" fill="#107001"/>
</svg>
