<svg width="20" height="20" viewBox="0 0 20 20" fill="none" xmlns="http://www.w3.org/2000/svg">
<path d="M3.33337 13.3333C3.33337 12.873 3.70647 12.4999 4.16671 12.4999H10.8334C11.2936 12.4999 11.6667 12.873 11.6667 13.3333C11.6667 13.7935 11.2936 14.1666 10.8334 14.1666H4.16671C3.70647 14.1666 3.33337 13.7935 3.33337 13.3333Z" fill="#667185"/>
<path d="M13.3334 12.4999C12.8731 12.4999 12.5 12.873 12.5 13.3333C12.5 13.7935 12.8731 14.1666 13.3334 14.1666H15C15.4603 14.1666 15.8334 13.7935 15.8334 13.3333C15.8334 12.873 15.4603 12.4999 15 12.4999H13.3334Z" fill="#667185"/>
<path fill-rule="evenodd" clip-rule="evenodd" d="M0.833374 5.41659C0.833374 3.57564 2.32576 2.08325 4.16671 2.08325H15.8334C17.6743 2.08325 19.1667 3.57564 19.1667 5.41659V14.5833C19.1667 16.4242 17.6743 17.9166 15.8334 17.9166H4.16671C2.32576 17.9166 0.833374 16.4242 0.833374 14.5833V5.41659ZM4.16671 3.74992C3.24623 3.74992 2.50004 4.49611 2.50004 5.41659V5.83325H17.5V5.41659C17.5 4.49611 16.7538 3.74992 15.8334 3.74992H4.16671ZM17.5 7.49992H2.50004V14.5833C2.50004 15.5037 3.24623 16.2499 4.16671 16.2499H15.8334C16.7538 16.2499 17.5 15.5037 17.5 14.5833V7.49992Z" fill="#667185"/>
</svg>
