<svg width="13" height="12" viewBox="0 0 13 12" fill="none" xmlns="http://www.w3.org/2000/svg">
<path fill-rule="evenodd" clip-rule="evenodd" d="M0.705446 8.78511L4.91289 0.936372C5.58216 -0.312123 7.41784 -0.312125 8.08711 0.93637L12.2946 8.78511C12.9164 9.94507 12.0517 11.3333 10.7074 11.3333H2.29256C0.948283 11.3333 0.0836293 9.94507 0.705446 8.78511ZM6.5 2C6.86819 2 7.16667 2.29848 7.16667 2.66667V7.33333C7.16667 7.70152 6.86819 8 6.5 8C6.13181 8 5.83333 7.70152 5.83333 7.33333V2.66667C5.83333 2.29848 6.13181 2 6.5 2ZM5.66667 9.16667C5.66667 9.6269 6.03976 10 6.5 10C6.96024 10 7.33333 9.6269 7.33333 9.16667C7.33333 8.70643 6.96024 8.33333 6.5 8.33333C6.03976 8.33333 5.66667 8.70643 5.66667 9.16667Z" fill="#FF0006"/>
</svg>
